<?xml version="1.0" encoding="UTF-8" standalone="no"?>
<svg
   width="111.87277"
   zoomAndPan="magnify"
   viewBox="0 0 83.904579 76.230478"
   height="101.64064"
   preserveAspectRatio="xMidYMid"
   version="1.0"
   id="svg29"
   xmlns="http://www.w3.org/2000/svg"
   xmlns:svg="http://www.w3.org/2000/svg">
  <defs
     id="defs1">
    <clipPath
       id="9d20e262cb">
      <path
         d="M 43.378906,149.37891 H 128 v 76.5 H 43.378906 Z m 0,0"
         clip-rule="nonzero"
         id="path1" />
    </clipPath>
  </defs>
  <rect
     x="-156.20828"
     width="450"
     fill="#ffffff"
     y="-185.96187"
     height="450"
     fill-opacity="1"
     id="rect1" />
  <g
     clip-path="url(#9d20e262cb)"
     id="g2"
     transform="translate(-43.378904,-149.38671)"
     style="fill:#262261;fill-opacity:1">
    <path
       fill="#00004d"
       d="m 46.996094,184.54687 c 2,0 3.617187,1.6211 3.617187,3.6211 0,1.99609 -1.617187,3.61719 -3.617187,3.61719 -1.996094,0 -3.617188,-1.6211 -3.617188,-3.61719 0,-2 1.621094,-3.6211 3.617188,-3.6211 m 2.304687,-20.35156 c 1.707031,0 3.089844,1.38281 3.089844,3.09375 0,1.70703 -1.382813,3.08985 -3.089844,3.08985 -1.710937,0 -3.09375,-1.38282 -3.09375,-3.08985 0,-1.71094 1.382813,-3.09375 3.09375,-3.09375 z m 13.277344,9.375 c 2.691406,0 4.871094,2.1836 4.871094,4.875 0,2.69141 -2.179688,4.8711 -4.871094,4.8711 -2.691406,0 -4.875,-2.1836 -4.875,-4.8711 0.0039,-2.6914 2.183594,-4.875 4.875,-4.875 z m 5.628906,-18.74609 c 2.488281,0 4.507813,2.01562 4.507813,4.50781 0,2.48828 -2.019532,4.50781 -4.507813,4.50781 -2.488281,0 -4.507812,-2.01953 -4.507812,-4.50781 0,-2.49219 2.019531,-4.50781 4.507812,-4.50781 z m 26.683594,3.17187 8.894535,13.04688 0.35547,-0.008 c 4.47656,0 8.10546,3.6289 8.10546,8.10546 0,4.47266 -3.6289,8.10547 -8.10546,8.10547 -2.10547,0 -4.09375,-0.8125 -5.57813,-2.22656 l -4.867188,1.76563 c -0.511718,1.72265 -1.695312,3.15625 -3.246093,3.99218 1.277343,0.42578 2.398437,1.24219 3.191406,2.33203 l 6.09375,-0.0273 c 1.171875,-1.52734 3.011715,-2.46875 5.003905,-2.46875 3.47656,0 6.29688,2.82031 6.29688,6.29688 0,3.48046 -2.82032,6.30078 -6.29688,6.30078 -1.98437,0 -3.8125,-0.92969 -4.984374,-2.44922 l -6.171875,0.0273 c -0.972656,1.30078 -2.410156,2.19141 -4.023437,2.48438 l -2.304688,4.93359 c 0.257813,0.67969 0.394532,1.40234 0.394532,2.13672 0,1.90234 -0.886719,3.59766 -2.273438,4.69141 3.992188,1.13281 7.574219,3.46875 10.230469,6.73437 h 13.140621 l 4.75782,-9.39453 c 6.55468,-1.64453 11.17968,-1.40625 8.80078,-9.37891 2.11719,-2.02343 3.42187,-2.75781 1.03906,-4.52734 0.99219,-0.51172 1.30469,-1.00781 1.44922,-1.6875 l -1.72266,-3.26172 c 3.44532,-1.97266 5.02344,-3.94531 3.80469,-5.35156 l -7.85547,-9.01953 C 117.6875,162.70703 106.92188,155.25391 95.375,154.62109 c 0.01172,0.1836 0.01953,0.36719 0.01953,0.55469 0,0.96875 -0.171875,1.92188 -0.503905,2.82031 z m -1.839844,-3.41015 c -0.292969,-2.91797 -2.761719,-5.19922 -5.761719,-5.19922 -3.199218,0 -5.792968,2.59375 -5.792968,5.78906 0,0.625 0.101562,1.23047 0.285156,1.79297 0.753906,2.32031 2.9375,4 5.507812,4 0.96875,0 1.882813,-0.23828 2.683594,-0.65625 l 10.058594,14.75 c -1.039062,1.04687 -1.679688,2.48828 -1.679688,4.07422 l 0.0039,0.24609 -7.644531,2.77344 c -0.804688,-1.01563 -2.046876,-1.66797 -3.441407,-1.66797 -2.421875,0 -4.386719,1.96484 -4.386719,4.39063 0,2.42187 1.964844,4.38671 4.386719,4.38671 2.363281,0 4.285157,-1.86718 4.382813,-4.20312 l 7.632812,-2.76953 c 1.035151,1.58984 2.824221,2.63672 4.855471,2.63672 3.19921,0 5.79296,-2.59375 5.79296,-5.79297 0,-3.19531 -2.58984,-5.78906 -5.79296,-5.78906 -0.50391,0 -0.99219,0.0625 -1.45704,0.18359 L 92.230469,158.19922 c 0.539062,-0.87891 0.851562,-1.91406 0.851562,-3.02344 0,-0.19922 -0.01172,-0.39453 -0.03125,-0.58984 z M 79.605469,207.3125 C 78.636719,207.97266 78,209.08594 78,210.34375 c 0,1.90234 1.449219,3.46484 3.300781,3.64844 0.121094,0.0117 0.242188,0.0195 0.367188,0.0195 2.023437,0 3.667969,-1.64063 3.667969,-3.66797 0,-0.77734 -0.242188,-1.49609 -0.65625,-2.08984 l 3.367187,-7.21094 0.367187,0.0156 c 1.734376,0 3.222657,-1.0664 3.839844,-2.57812 l 8.808594,-0.0391 c 0.59766,1.4414 2.01953,2.45312 3.67578,2.45312 2.20313,0 3.98438,-1.78516 3.98438,-3.98437 0,-2.19922 -1.78125,-3.98438 -3.98438,-3.98438 -1.66015,0 -3.08594,1.01953 -3.68359,2.46484 l -8.765628,0.0391 c -0.59375,-1.5586 -2.105468,-2.66797 -3.875,-2.66797 -1.367187,0 -2.582031,0.66406 -3.339843,1.6875 l -7.257813,-3.97266 c 0.07813,-0.34375 0.117188,-0.70312 0.117188,-1.07031 0,-1.55859 -0.707032,-2.95313 -1.816406,-3.87891 l 3.039062,-7.5039 c 0.3125,0.0391 0.636719,0.0625 0.960938,0.0625 4.144531,0 7.5,-3.35938 7.5,-7.50391 0,-4.14453 -3.355469,-7.50391 -7.5,-7.50391 -4.144532,0 -7.503907,3.35938 -7.503907,7.50391 0,2.73438 1.464844,5.12891 3.652344,6.4375 l -2.972656,7.34766 -0.417969,-0.0156 c -2.789062,0 -5.054688,2.26172 -5.054688,5.05469 0,2.79297 2.265626,5.05859 5.054688,5.05859 1.324219,0 2.527344,-0.51172 3.429688,-1.33984 l 8.003906,4.38281 c 0.117187,0.82813 0.480468,1.57422 1.011718,2.16797 l -3.277343,7.02344 -0.375,-0.0195 c -0.765625,0 -1.476563,0.23437 -2.0625,0.63281 z m 7.664062,-29.13672 c 1.457031,0 2.847657,0.47266 3.992188,1.32031 l 4.898437,-1.77734 c 0.171875,-0.96484 0.519532,-1.89063 1.019532,-2.73047 l -8.113282,-11.89844 c -0.582031,0.12891 -1.175781,0.19532 -1.777344,0.19532 l -0.632812,-0.0234 c 2.011719,1.79687 3.277344,4.41015 3.277344,7.32031 0,3.10547 -1.445313,5.875 -3.699219,7.67578 0.335937,-0.0547 0.683594,-0.082 1.035156,-0.082 z m -7.738281,39.01953 c 2.324219,0 4.210938,1.88281 4.210938,4.21094 0,2.32812 -1.886719,4.21094 -4.210938,4.21094 -2.324219,0 -4.210938,-1.88282 -4.210938,-4.21094 0,-2.32813 1.882813,-4.21094 4.210938,-4.21094 z M 66.429688,210.8125 c 2.324218,0 4.210937,1.88281 4.210937,4.21094 0,2.32812 -1.886719,4.21093 -4.210937,4.21093 -2.328126,0 -4.214844,-1.88281 -4.214844,-4.21093 0,-2.32813 1.886718,-4.21094 4.214844,-4.21094 z m -6.507813,-14.61328 c 1.960937,0 3.550781,1.58984 3.550781,3.55078 0,1.96094 -1.589844,3.55469 -3.550781,3.55469 -1.964844,0 -3.554687,-1.59375 -3.554687,-3.55469 0,-1.96484 1.589843,-3.55078 3.554687,-3.55078 z m 0,0"
       fill-opacity="1"
       fill-rule="evenodd"
       id="path2"
       style="fill:#262261;fill-opacity:1" />
  </g>
  <circle
     id="path3"
     style="fill:#000000;stroke:#000000;stroke-width:0.75"
     cx="29.894091"
     cy="35.562714"
     r="0.16896124" />
  <path
     style="fill:#262261;stroke-width:0.447494"
     d="m 50.385264,70.134378 c -1.301842,-1.21437 -3.53238,-2.74287 -4.956742,-3.396667 l -2.589758,-1.18872 0.838478,-1.620585 c 0.522547,-1.00998 0.788385,-2.306715 0.705547,-3.441585 -0.17433,-2.388308 1.63212,-6.378173 3.048765,-6.733725 0.552,-0.138548 1.351733,-0.63654 1.77717,-1.106648 1.158375,-1.279987 6.439035,-1.222147 8.213768,0.08997 2.72628,2.015633 6.460852,1.532295 8.978332,-1.16199 0.94974,-1.016437 1.118737,-1.625812 1.118737,-4.033912 0,-2.408108 -0.168997,-3.017475 -1.118737,-4.033913 -2.537775,-2.716005 -5.890012,-3.231765 -8.68356,-1.33602 -1.36761,0.928088 -2.178982,1.118738 -4.761135,1.118738 -1.71192,0 -3.112582,-0.16734 -3.112582,-0.371873 0,-0.204532 -0.468975,-0.622867 -1.04217,-0.929632 l -1.04217,-0.557753 1.265917,-1.355167 c 0.696255,-0.745343 1.265918,-1.59615 1.265918,-1.890683 0,-0.294532 1.004182,-0.896609 2.231512,-1.337954 2.203433,-0.792345 2.25726,-0.789983 4.276118,0.187327 2.873812,1.39119 6.613425,1.117552 8.935867,-0.653865 3.16881,-2.416965 4.178812,-6.760605 2.417857,-10.398255 -1.115812,-2.304952 -2.870475,-3.647662 -5.701927,-4.363237 -2.028127,-0.512558 -2.21859,-0.714998 -6.352905,-6.75243 -3.64071,-5.3166376 -4.23705,-6.4384951 -4.090357,-7.6950076 0.1536,-1.3156725 0.3201,-1.470405 1.577122,-1.4656575 2.025698,0.00765 5.830223,1.0981575 8.658008,2.48166 3.595432,1.75908 7.761704,5.8665671 9.708704,9.5717101 1.591463,3.02856 3.399668,8.923822 3.399668,11.083897 0,0.710618 1.293945,2.53512 3.836955,5.410215 5.107627,5.774617 5.040532,5.62098 3.236932,7.411552 -0.814117,0.80823 -1.866352,1.682445 -2.33829,1.942695 -0.83793,0.462068 -0.834877,0.512505 0.13011,2.14803 0.93246,1.580408 0.945398,1.722128 0.22935,2.513348 -0.713452,0.788355 -0.713437,0.88866 2.1e-4,1.67724 0.71853,0.793957 0.69657,0.912967 -0.411315,2.229622 -1.05132,1.249418 -1.140367,1.630988 -0.875445,3.751313 0.249383,1.996012 0.15,2.544645 -0.64374,3.553717 -0.928147,1.179953 -3.563565,2.275463 -6.880042,2.859953 -1.642808,0.28953 -1.785825,0.467932 -4.143053,5.168115 l -2.441512,4.868235 -6.14931,-0.01703 -6.149302,-0.01702 z"
     id="path4" />
</svg>
